:SAMPLES-PER-SECOND 30
:FRAME-RANGE 1-1770
:FULLY-SPECIFIED
:DEGREES
1273
root  16.0227 36.9606 -37.8194 5.94128 -43.1834 0.388
RightUpLeg  -17.5701 -0.0518486 -12.6582
RightLeg  69.111 1.41837 3.38691
RightFoot  6.95381 -2.44368 15.3906
RightToes  6.35937e-011 1.2921e-014 -6.02303e-014
Spine  12.3319 0.868042 -1.86974
Spine1  -3.9759 0.609737 -2.42159
HEad  -8.73305 1.87281 -1.98094
LeftShoulder1  2.17964 -3.50269 -24.9266
LeftArm  17.7295 -50.2083 -51.7529
LeftForeArm  30.2445 -39.3967 -7.2836
LeftHand  -0.405132 -1.98517 6.56759
RightShoulder  14.288 31.5614 34.3336
RightArm  0.0356942 31.2 18.2184
RightForeArm  11.651 26.5968 5.09859
RightHand  -0.417395 4.70089 -5.08924
LeftUpLeg  -23.8742 6.15751 -20.5916
LeftLeg  29.128 15.303 9.41177
LeftFoot  -20.5088 0.829257 8.78371
LeftToes  3.18074e-010 1.39432e-010 -7.71186e-011
1274
root  15.0224 37.2191 -36.7051 6.68396 -36.8839 0.139862
RightUpLeg  -23.4051 1.55053 -12.8218
RightLeg  69.4109 -1.54451 -5.3367
RightFoot  3.44981 -1.07915 8.4815
RightToes  6.35937e-011 1.2921e-014 -6.02303e-014
Spine  12.5557 -0.120091 -1.83021
Spine1  -4.2443 -0.43706 -1.21569
HEad  -9.69096 -0.303142 -2.54826
LeftShoulder1  2.26835 -4.23413 -23.0454
LeftArm  24.8143 -55.3498 -59.8308
LeftForeArm  30.2758 -38.1925 -6.93558
LeftHand  -0.448524 -1.55987 7.66177
RightShoulder  13.2838 32.4804 30.4708
RightArm  -4.36281 33.7906 16.8635
RightForeArm  13.1096 27.4274 5.2081
RightHand  -0.388186 4.90653 -4.67097
LeftUpLeg  -19.5327 1.86186 -19.4981
LeftLeg  27.1708 13.9971 7.7825
LeftFoot  -21.2155 0.863488 8.49971
LeftToes  3.18074e-010 1.39432e-010 -7.71186e-011
1275
root  14.0452 37.5574 -35.5213 7.97656 -31.029 -0.440002
RightUpLeg  -29.0097 1.61662 -12.8525
RightLeg  65.6635 -4.10703 -10.4795
RightFoot  -1.16928 -0.319817 3.5017
RightToes  6.35937e-011 1.2921e-014 -6.02303e-014
Spine  12.4816 -0.858985 -1.18258
Spine1  -4.68941 -1.06561 -0.0104622
HEad  -10.9605 -2.55646 -2.15386
LeftShoulder1  2.21894 -4.86663 -20.0631
LeftArm  35.2649 -60.833 -70.7793
LeftForeArm  29.2018 -35.5053 -6.26792
LeftHand  -0.480658 -1.04981 8.80658
RightShoulder  12.3291 33.6068 26.6587
RightArm  -9.25998 35.8982 14.6649
RightForeArm  14.7664 27.2615 5.07957
RightHand  -0.536218 4.90573 -6.33559
LeftUpLeg  -15.2852 -1.50304 -17.9495
LeftLeg  23.8568 12.3799 5.67265
LeftFoot  -20.6577 0.890568 9.37937
LeftToes  3.18074e-010 1.39432e-010 -7.71186e-011
1276
root  13.0366 37.6876 -34.3525 8.76721 -25.6426 -0.470306
RightUpLeg  -32.3303 2.6111 -14.4619
RightLeg  57.5789 2.10317 3.1369
RightFoot  -10.2403 -0.198634 13.3427
RightToes  6.35937e-011 1.2921e-014 -6.02303e-014
Spine  12.3207 -1.20683 -1.65767
Spine1  -4.67833 -1.46848 1.16107
HEad  -12.297 -4.56089 -2.10614
LeftShoulder1  2.10855 -5.59139 -16.4719
LeftArm  48.0578 -66.1477 -83.5491
LeftForeArm  27.2119 -32.4385 -5.60416
LeftHand  -0.482478 -0.621901 9.43221
RightShoulder  10.7843 34.6066 21.4869
RightArm  -13.0371 38.782 12.805
RightForeArm  14.5415 24.9093 4.56883
RightHand  -0.696177 4.76689 -8.2344
LeftUpLeg  -11.8839 -2.88652 -16.7681
LeftLeg  22.1194 9.08266 3.75663
LeftFoot  -20.8491 0.977098 10.2085
LeftToes  3.18074e-010 1.39432e-010 -7.71186e-011
1277
root  11.9982 37.7233 -33.0786 9.54834 -21.235 -0.612823
RightUpLeg  -33.9203 1.91415 -14.8882
RightLeg  44.7725 7.51121 7.62883
RightFoot  -15.8652 0.777282 22.1688
RightToes  6.35937e-011 1.2921e-014 -6.02303e-014
Spine  12.3089 -1.39102 -1.58599
Spine1  -5.05909 -1.4065 1.51939
HEad  -13.3883 -5.97044 -1.90011
LeftShoulder1  1.86899 -6.08566 -12.4211
LeftArm  63.2819 -70.5914 -98.6216
LeftForeArm  24.9221 -28.2717 -4.75173
LeftHand  -0.498658 0.0986134 11.0059
RightShoulder  9.15871 35.8393 16.0989
RightArm  -18.7405 41.848 10.5431
RightForeArm  16.9341 20.7443 4.82306
RightHand  -0.781765 5.06662 -8.95991
LeftUpLeg  -8.78939 -3.28945 -15.4129
LeftLeg  20.9607 5.64705 2.478
LeftFoot  -21.0563 1.12774 11.7309
LeftToes  3.18074e-010 1.39432e-010 -7.71186e-011
1278
root  11.0344 37.9138 -31.7213 10.9364 -17.9646 -1.34106
RightUpLeg  -34.8721 0.691753 -13.3338
RightLeg  28.0769 6.53093 3.54934
RightFoot  -12.3511 0.139945 25.1212
RightToes  6.35937e-011 1.2921e-014 -6.02303e-014
Spine  12.464 -1.10661 -0.480557
Spine1  -5.65633 -0.900504 2.54165
HEad  -14.9273 -7.0756 -1.9779
LeftShoulder1  1.61544 -6.1608 -9.33897
LeftArm  80.1474 -74.0443 -115.78
LeftForeArm  21.682 -23.2834 -3.98559
LeftHand  -0.482128 0.885972 12.426
RightShoulder  7.33245 37.4862 10.2035
RightArm  -31.936 44.3122 7.33516
RightForeArm  27.7487 14.2319 7.1986
RightHand  -0.947488 5.07737 -10.7752
LeftUpLeg  -5.61531 -2.6426 -13.1257
LeftLeg  18.0983 1.64997 1.00067
LeftFoot  -20.859 1.11314 11.814
LeftToes  3.18074e-010 1.39432e-010 -7.71186e-011
1279
root  10.0942 38.133 -30.3751 12.3649 -15.1234 -2.3808
RightUpLeg  -35.5522 -1.012 -9.53456
RightLeg  12.0184 -2.82322 -1.40305
RightFoot  -0.135296 -1.52984 15.4972
RightToes  6.35937e-011 1.2921e-014 -6.02303e-014
Spine  12.9128 -1.04347 2.16809
Spine1  -5.5622 -0.544732 2.02494
HEad  -17.3422 -7.56243 -1.26666
LeftShoulder1  1.32462 -5.77622 -6.60416
LeftArm  85.2538 -77.2817 -136.193
LeftForeArm  32.203 -15.943 -9.23484
LeftHand  -0.414055 1.71896 12.9979
RightShoulder  5.48101 39.3816 4.5464
RightArm  -42.9185 46.0984 4.38222
RightForeArm  35.0774 8.03845 7.04796
RightHand  -0.989549 4.91297 -11.407
LeftUpLeg  -2.44923 -1.66233 -10.2118
LeftLeg  14.7182 -2.30763 -0.0517669
LeftFoot  -20.2808 0.999947 11.1886
LeftToes  3.18074e-010 1.39432e-010 -7.71186e-011
1280
root  8.96708 38.0225 -28.9057 12.9594 -11.5545 -2.4433
RightUpLeg  -34.6704 -4.88783 -6.68457
RightLeg  1.72515 -5.45686 0.0022436
RightFoot  1.64431 -1.82441 16.0336
RightToes  6.35937e-011 1.2921e-014 -6.02303e-014
Spine  13.3237 -1.41203 3.76992
Spine1  -5.22658 -0.486919 0.273767
HEad  -20.6346 -8.13416 0.410181
LeftShoulder1  1.07996 -5.47541 -4.07081
LeftArm  92.1519 -79.1837 -161.202
LeftForeArm  45.0866 -6.58135 -12.5404
LeftHand  -0.366607 1.92629 12.152
RightShoulder  3.75952 40.6423 -0.193562
RightArm  -46.5721 47.4686 1.89933
RightForeArm  34.4229 3.58905 5.7801
RightHand  -0.895117 4.66985 -10.5883
LeftUpLeg  -0.0583067 -1.54706 -7.92936
LeftLeg  14.7081 -5.70793 -0.567577
LeftFoot  -21.3417 0.987903 9.79509
LeftToes  3.18074e-010 1.39432e-010 -7.71186e-011
1281
root  7.76342 37.7758 -27.3008 13.6026 -7.40356 -1.48529
RightUpLeg  -34.6248 -6.77563 -6.66083
RightLeg  -0.646983 -8.57927 2.23731
RightFoot  4.89978 -2.63682 18.5682
RightToes  6.35937e-011 1.2921e-014 -6.02303e-014
Spine  13.3219 -1.49807 3.54089
Spine1  -4.88199 -0.617372 0.195413
HEad  -24.1289 -9.46982 1.09263
LeftShoulder1  0.885479 -5.22693 -1.93461
LeftArm  106.459 -78.7941 179.69
LeftForeArm  51.8959 -0.33321 -11.8864
LeftHand  -0.474879 1.40973 13.7983
RightShoulder  2.05727 41.1152 -4.53457
RightArm  -48.4061 48.1121 -0.014954
RightForeArm  33.2497 -0.102451 4.95683
RightHand  -0.750242 4.53132 -9.04492
LeftUpLeg  1.61028 -3.05501 -6.3402
LeftLeg  15.7539 -7.79382 -1.09049
LeftFoot  -22.256 0.871739 7.70889
LeftToes  3.18074e-010 1.39432e-010 -7.71186e-011
1282
root  6.66464 37.7146 -25.7152 14.664 -3.43556 -1.17938
RightUpLeg  -36.8797 -7.95854 -5.82708
RightLeg  4.82455 -5.05246 2.71915
RightFoot  17.5304 -1.93618 7.98622
RightToes  6.35937e-011 1.2921e-014 -6.02303e-014
Spine  14.1251 -1.23682 5.35756
Spine1  -4.88456 -0.655364 0.388089
HEad  -26.7635 -10.9241 0.810533
LeftShoulder1  0.751465 -4.82156 -0.666031
LeftArm  118.974 -78.0148 172.284
LeftForeArm  52.5632 0.38902 -13.0653
LeftHand  -0.342422 3.10135 17.0618
RightShoulder  1.15023 41.2304 -6.80353
RightArm  -48.1331 47.9502 -0.417118
RightForeArm  27.929 -2.43563 5.06279
RightHand  -0.795245 1.89717 -12.8161
LeftUpLeg  2.80221 -5.68276 -3.83977
LeftLeg  15.9847 -8.28429 -1.84915
LeftFoot  -21.535 0.520278 4.37942
LeftToes  3.18074e-010 1.39432e-010 -7.71186e-011
1283
root  5.69906 37.6147 -24.2697 15.2617 -0.998645 -1.90317
RightUpLeg  -41.7245 -13.4626 0.65385
RightLeg  17.3564 0.637395 0.391813
RightFoot  9.46592 -1.24533 7.13
RightToes  6.35937e-011 1.2921e-014 -6.02303e-014
Spine  17.3697 -1.05935 8.72475
Spine1  -8.3017 0.349415 -1.13736
HEad  -29.5664 -11.4672 0.0589122
LeftShoulder1  0.642484 -4.38439 0.337842
LeftArm  124.175 -78.3465 166.384
LeftForeArm  51.7161 1.28284 -12.4463
LeftHand  -0.325824 3.49962 19.6487
RightShoulder  1.50734 40.9888 -5.89355
RightArm  -49.1364 48.5756 -1.91897
RightForeArm  27.1093 -0.358221 5.41605
RightHand  -0.844304 1.07293 -15.2489
LeftUpLeg  1.6022 -6.21704 -0.53467
LeftLeg  21.2175 -8.42547 -3.26769
LeftFoot  -20.4021 0.00380747 -1.49642
LeftToes  3.18074e-010 1.39432e-010 -7.71186e-011
1284
root  4.85285 37.5249 -23.0242 16.1686 -0.0203962 -2.20264
RightUpLeg  -43.8014 -13.4347 2.19459
RightLeg  23.8979 0.369784 -0.0434003
RightFoot  4.54625 -0.870806 6.45699
RightToes  6.35937e-011 1.2921e-014 -6.02303e-014
Spine  18.3644 -1.00983 9.89774
Spine1  -9.14746 0.624671 -0.756824
HEad  -30.6517 -9.96461 -1.71223
LeftShoulder1  0.54582 -4.24145 1.58963
LeftArm  141.96 -80.7491 150.649
LeftForeArm  46.9802 2.60767 -11.8306
LeftHand  -0.360685 3.47487 21.5469
RightShoulder  0.233704 42.7676 -9.1044
RightArm  -51.4585 50.7283 -4.38741
RightForeArm  25.6675 -3.29532 4.90575
RightHand  -0.842032 1.01397 -15.3433
LeftUpLeg  -2.22017 -1.09502 2.83744
LeftLeg  29.5962 -11.1522 -6.44839
LeftFoot  -16.7109 -0.286018 -8.22111
LeftToes  3.18074e-010 1.39432e-010 -7.71186e-011
